<?xml version="1.0" encoding="UTF-8"?>
<!DOCTYPE svg PUBLIC "-//W3C//DTD SVG 1.1//EN" "http://www.w3.org/Graphics/SVG/1.1/DTD/svg11.dtd">
<!-- Creator: CorelDRAW X7 -->
<svg xmlns="http://www.w3.org/2000/svg" xml:space="preserve" width="2.6028mm" height="1.8626mm" version="1.1" style="shape-rendering:geometricPrecision; text-rendering:geometricPrecision; image-rendering:optimizeQuality; fill-rule:evenodd; clip-rule:evenodd"
viewBox="0 0 6 4"
 xmlns:xlink="http://www.w3.org/1999/xlink">
 <defs>
  <style type="text/css">
   <![CDATA[
    .fil0 {fill:black}
   ]]>
  </style>
 </defs>
 <g id="Слой_x0020_1">
  <metadata id="CorelCorpID_0Corel-Layer"/>
  <g id="_2368313367520">
   <g id="_2368308863952">
    <path class="fil0" d="M6 2c0,0 0,0 0,0l-5 0c-1,0 -1,0 -1,0l0 2 0 0c0,0 0,0 0,0l6 0c0,0 0,0 0,0l0 -2z"/>
    <g>
     <path class="fil0" d="M1 1c0,0 0,0 0,0l0 0c0,0 0,0 0,0zm0 1c0,0 0,0 0,0 0,0 0,0 0,0l0 0z"/>
     <path class="fil0" d="M2 0c0,0 0,1 0,1 0,0 0,0 0,0l-1 0c0,0 0,0 0,0 0,0 0,-1 1,-1zm0 2c0,0 0,0 0,0 0,0 -1,0 -1,0l1 0 0 0z"/>
     <path class="fil0" d="M2 0c1,0 1,0 1,1 0,0 0,0 -1,0l0 0c0,0 0,0 0,0 0,-1 0,-1 0,-1z"/>
     <path class="fil0" d="M3 0c0,0 0,1 0,1 0,0 0,0 0,0l-1 0c0,0 0,0 0,0 0,0 1,-1 1,-1z"/>
     <path class="fil0" d="M3 0c1,0 1,0 1,1 0,0 0,0 -1,0 0,0 0,0 0,0 0,-1 0,-1 0,-1z"/>
     <path class="fil0" d="M4 0c0,0 0,0 0,1 0,0 0,0 0,0l0 0c0,0 0,0 0,0 0,-1 0,-1 0,-1l0 0z"/>
     <path class="fil0" d="M5 0c0,0 0,0 0,1 0,0 0,0 0,0l-1 0c0,0 0,0 0,0 0,-1 0,-1 1,-1z"/>
     <path class="fil0" d="M5 1c0,0 0,0 1,0l-1 0c0,0 0,0 0,0zm0 1c0,0 0,0 0,0 0,0 0,0 0,0l0 0 0 0z"/>
     <path class="fil0" d="M4 1c1,0 1,0 1,0l-1 0c0,0 0,0 0,0zm1 1c0,0 0,0 -1,0 0,0 0,0 0,0l1 0z"/>
     <path class="fil0" d="M4 1c0,0 0,0 0,0l0 0c0,0 0,0 0,0zm0 1c0,0 0,0 0,0 0,0 0,0 0,0l0 0z"/>
     <path class="fil0" d="M3 1c0,0 1,0 1,0l-1 0c0,0 0,0 0,0zm1 1c0,0 -1,0 -1,0 0,0 0,0 0,0l1 0z"/>
     <path class="fil0" d="M2 1c1,0 1,0 1,0l-1 0c0,0 0,0 0,0zm1 1c0,0 0,0 -1,0 0,0 0,0 0,0l1 0z"/>
    </g>
   </g>
  </g>
 </g>
</svg>
