<?xml version="1.0" encoding="UTF-8"?>
<!DOCTYPE svg PUBLIC "-//W3C//DTD SVG 1.1//EN" "http://www.w3.org/Graphics/SVG/1.1/DTD/svg11.dtd">
<!-- Creator: CorelDRAW X7 -->
<svg xmlns="http://www.w3.org/2000/svg" xml:space="preserve" width="5.2384mm" height="6.35mm" version="1.1" style="shape-rendering:geometricPrecision; text-rendering:geometricPrecision; image-rendering:optimizeQuality; fill-rule:evenodd; clip-rule:evenodd"
viewBox="0 0 524 635"
 xmlns:xlink="http://www.w3.org/1999/xlink">
 <defs>
  <style type="text/css">
   <![CDATA[
    .fil0 {fill:black}
   ]]>
  </style>
 </defs>
 <g id="Слой_x0020_1">
  <metadata id="CorelCorpID_0Corel-Layer"/>
  <g id="_2002139329056">
   <path class="fil0" d="M236 443c2,-13 15,-34 26,-40 11,8 28,29 25,40 -2,-2 -16,-9 -21,-9 -10,0 -11,-1 -21,4 -2,2 -7,5 -9,5zm-129 -94c0,-6 5,-29 6,-33l14 -25c5,2 4,5 7,8l8 8c2,2 6,4 9,6 10,8 23,16 34,21l17 6c3,1 11,3 12,4 2,1 6,7 7,9 3,5 6,18 6,25 -2,16 -10,34 -19,43 -17,-11 -39,-18 -60,-18 -16,0 -23,1 -31,-9 -11,-16 -10,-29 -10,-45zm208 71c-2,-2 -10,-15 -12,-19 -7,-18 -8,-33 1,-50 6,-9 8,-8 19,-11 4,-2 8,-3 12,-4 4,-2 7,-4 10,-5 11,-5 20,-11 29,-18 3,-3 5,-4 8,-7 3,-3 13,-14 15,-15l14 26c7,19 10,59 -4,76 -9,11 -12,10 -30,10 -37,0 -56,17 -62,17zm-208 -288c-11,19 -16,44 -19,67l-1 36c0,12 13,24 11,62 -1,12 -6,29 -11,39 -5,12 -6,34 -4,46 3,16 11,29 25,37 6,4 16,12 18,20 -3,4 -11,11 -10,18 9,-4 6,-8 18,9 4,5 12,15 17,18 10,6 27,-1 34,-12 3,-5 4,-5 12,-5 3,8 2,3 2,12 -19,1 -25,30 -21,39 2,0 7,-3 11,-3 16,-4 32,7 40,19 3,5 2,6 8,7 32,9 18,9 48,1 7,-2 6,-1 9,-6 2,-3 5,-6 7,-9 8,-9 20,-14 33,-12 1,0 4,1 6,1 3,1 3,2 6,2 2,-13 -1,-27 -10,-35 -5,-4 -7,-2 -11,-5 -4,-16 9,-15 14,-7 3,5 3,5 8,9 7,5 17,9 26,4 4,-2 13,-13 16,-17 14,-17 6,-14 19,-11 0,-17 -21,-11 -1,-30 10,-10 17,-8 26,-23 10,-17 11,-49 5,-64 -7,-17 -9,-19 -11,-39 -1,-12 -2,-11 0,-24 1,-10 3,-21 7,-30 9,-19 1,-65 -5,-86 -1,-3 -3,-6 -4,-10 -1,-3 -3,-8 -4,-11l-9 -16c-4,-9 -12,-17 -16,-23l-8 -8c-7,-8 -5,-4 -9,-8 -9,-8 -15,-13 -27,-20 -3,-2 -7,-4 -10,-6 -4,-1 -7,-3 -11,-4 -12,-6 -45,-5 -56,-7 -12,-1 -53,2 -67,3 -7,1 -13,3 -19,5 -24,11 -57,36 -70,57 -4,5 -9,12 -12,20z"/>
   <path class="fil0" d="M311 591c0,13 1,19 -3,32 -1,4 -3,8 -4,12 5,-1 15,-10 18,-12 9,-8 22,-22 27,-33 7,-17 8,-30 4,-47 -2,-5 -5,-7 -10,-7 -14,0 -19,-1 -31,8 -2,2 -4,3 -6,5 -12,13 -6,8 0,23 1,4 5,15 5,19z"/>
   <path class="fil0" d="M173 538c-5,18 -7,30 1,50 5,12 5,9 12,18 6,7 25,26 34,29 -2,-6 -5,-13 -6,-19 -1,-6 -2,-14 -1,-22 2,-15 5,-25 12,-35 -3,-8 -21,-23 -30,-23 -14,0 -10,-1 -22,2z"/>
   <path class="fil0" d="M426 495l-6 -12c-2,-4 -4,-5 -6,-10l-6 0c-7,7 -14,21 -29,27l11 18c0,1 1,2 2,3 13,25 11,42 13,48 9,-3 20,-19 24,-29 2,-6 2,-16 1,-24 0,-4 -1,-7 -1,-11 -1,-2 -3,-7 -3,-10z"/>
   <path class="fil0" d="M118 569c4,-8 0,-28 22,-61 2,-3 4,-5 5,-7 -1,-2 -5,-3 -8,-6 -4,-3 -5,-4 -9,-7 -2,-2 -4,-5 -7,-8 -6,-8 -9,-12 -16,2 -11,21 -19,46 -4,69 3,5 13,16 17,18z"/>
   <g>
    <path class="fil0" d="M173 151c4,0 6,0 10,-1 -3,-2 -4,-2 -7,-3 -11,-6 -21,-12 -31,-18l-19 -12c-2,-1 -3,-3 -5,-4 -4,-3 -8,-6 -12,-9 -17,-13 -54,-47 -67,-60 -4,-4 -7,-7 -11,-11 -5,-4 -28,-32 -31,-33 6,17 23,47 32,64 32,58 76,122 134,169 2,2 5,4 8,4 -6,-8 -12,-22 -19,-32l-11 -21c-2,-4 -5,-8 -7,-11l-12 -22c4,-3 30,-1 36,-1 4,0 7,0 12,1z"/>
    <path class="fil0" d="M351 151c-4,0 -6,0 -10,-1 3,-2 4,-2 7,-3 11,-6 21,-12 31,-18l18 -12c2,-1 4,-3 6,-4 4,-3 8,-6 12,-9 17,-13 54,-47 67,-60 3,-4 7,-7 11,-11 4,-4 28,-32 31,-33 -6,17 -23,47 -32,64 -32,58 -76,122 -134,169 -2,2 -5,4 -8,4 6,-8 12,-22 18,-32l12 -21c2,-4 5,-8 6,-11l12 -22c-3,-3 -29,-1 -35,-1 -5,0 -8,0 -12,1z"/>
   </g>
  </g>
 </g>
</svg>
