<?xml version="1.0" encoding="UTF-8"?>
<!DOCTYPE svg PUBLIC "-//W3C//DTD SVG 1.1//EN" "http://www.w3.org/Graphics/SVG/1.1/DTD/svg11.dtd">
<!-- Creator: CorelDRAW X7 -->
<svg xmlns="http://www.w3.org/2000/svg" xml:space="preserve" width="5.0058mm" height="6.35mm" version="1.1" style="shape-rendering:geometricPrecision; text-rendering:geometricPrecision; image-rendering:optimizeQuality; fill-rule:evenodd; clip-rule:evenodd"
viewBox="0 0 501 635"
 xmlns:xlink="http://www.w3.org/1999/xlink">
 <defs>
  <style type="text/css">
   <![CDATA[
    .fil0 {fill:black}
   ]]>
  </style>
 </defs>
 <g id="Слой_x0020_1">
  <metadata id="CorelCorpID_0Corel-Layer"/>
  <path class="fil0" d="M213 529c0,-2 2,-6 2,-10 0,-3 1,-8 2,-11 3,-13 4,-12 10,-22 3,-5 4,-6 8,-11 11,-13 8,-8 16,-8 1,0 3,-1 5,-1 3,1 8,7 10,9 4,5 13,19 15,24 2,6 4,13 5,20 0,5 5,14 -2,16 -3,0 -6,-5 -7,-6 -5,-4 -22,-10 -27,-10 -5,0 -23,6 -26,10 -2,2 -5,7 -8,6 -3,-1 -3,-4 -3,-6zm175 -145c5,-1 9,0 13,1 4,1 7,3 11,5 8,3 17,2 19,11 2,9 1,18 -1,27 0,3 -3,15 -5,18 0,2 -1,3 -2,5 -2,8 -5,14 -10,20 -7,7 -12,6 -23,4l-24 -6c-3,-1 -7,-3 -11,-4 -3,-1 -8,-3 -11,-3 -9,-2 -36,-13 -43,-17 -5,-2 -19,-9 -14,-13 4,-4 14,-9 19,-11 5,-3 2,-3 9,-6 3,-1 7,-4 10,-5 13,-8 27,-13 41,-19 7,-3 14,-5 22,-7zm-280 -1c7,0 18,5 24,7 10,4 32,14 41,18 4,2 7,4 10,6 9,4 6,4 14,8 2,1 3,2 5,3 3,2 7,3 9,5 4,3 5,5 1,8 -15,10 -35,17 -52,23 -2,1 -4,1 -6,2 -2,0 -3,1 -6,1 -11,3 -21,7 -34,10 -15,3 -22,5 -31,-10 -3,-3 -3,-6 -5,-10 0,-2 -1,-4 -2,-6 -3,-7 -2,-8 -5,-16 -2,-7 -3,-19 -2,-27 2,-11 5,-11 16,-14 8,-2 12,-8 23,-8zm265 179c-7,-6 -8,-34 -4,-36 6,-3 26,10 34,11 18,4 41,-1 51,-15 9,-15 1,-41 14,-54l11 -12c2,-2 3,-3 6,-6 1,-2 3,-4 4,-7 5,-12 6,-23 -2,-35l-7 -9c-1,-1 -2,-2 -3,-3 -3,-3 -3,-4 -5,-6 -6,-7 -11,-26 -11,-35 0,-10 3,-18 5,-29 1,-3 14,-29 15,-31 0,-1 1,-2 1,-4 1,-2 2,-2 2,-4 1,-2 2,-5 3,-8l6 -16c3,-8 3,-9 5,-18 3,-12 3,-49 0,-64 -3,-16 -3,-21 -10,-34 -5,-10 -6,-10 -10,-18 -8,-14 -10,-16 -18,-28l-10 -12c-2,-2 -8,-8 -8,-9 -2,-1 -15,-14 -16,-15 -1,-1 -3,-2 -4,-4 -1,-1 -3,-2 -4,-3l-18 -13c-6,-5 -26,-16 -27,-16 0,-1 0,-1 0,-1l-39 -16c-4,-1 -9,-2 -14,-4 -1,0 -2,0 -4,0 -1,-1 -2,-1 -3,-1 -11,-3 -28,-6 -39,-6 -5,0 -13,0 -17,-1 -5,0 -31,0 -38,1 -8,2 -33,5 -40,7 -1,1 -1,1 -2,1 -23,6 -43,16 -64,27l-9 7c-9,5 -20,13 -27,20l-8 7c-2,2 -3,3 -4,4 -4,4 -7,6 -10,10 -2,4 -11,13 -16,19 -4,6 -13,19 -15,24 -3,6 -7,10 -12,20 -5,11 -5,11 -8,23 0,2 -1,5 -1,7 -4,18 -4,46 -1,65 1,11 10,32 14,44 1,4 4,8 6,14l12 26c5,22 9,22 2,47 -5,19 -12,20 -21,33 -4,5 -7,10 -7,17 -1,8 2,19 6,25 5,7 10,10 15,16l7 8c8,12 2,38 12,51 2,4 5,5 8,8 2,1 3,1 5,2 2,1 4,2 6,3 14,4 26,4 40,-2 6,-3 16,-9 24,-8 4,1 3,19 2,23 -1,6 -2,6 -4,13 0,2 0,0 -1,2 -6,9 -11,37 -11,48 -1,8 -3,18 4,21 3,2 20,3 24,1 7,-4 6,-11 7,-20 0,-4 0,-8 3,-10 0,0 11,-7 12,1 1,5 0,6 1,15 2,8 3,11 12,10 6,0 13,3 14,-6 2,-5 1,-13 3,-19 7,-1 10,-2 10,7 0,16 1,18 21,18 19,0 7,-23 14,-29 1,-1 2,-1 4,-1 5,-1 12,-1 14,4 5,11 -8,28 21,26 7,-1 11,-1 12,-8 1,-3 0,-6 0,-9 0,-4 0,-6 2,-8 2,-1 7,-1 8,1 5,4 -4,26 14,24 3,0 5,0 8,0 6,0 6,-6 8,-11 1,-7 -2,-12 2,-17 2,-1 7,0 9,1 7,3 3,17 6,25 4,9 13,7 20,7 3,0 9,1 12,-4 3,-4 3,-11 2,-17 -1,-7 -1,-13 -3,-19 -1,-6 -2,-13 -3,-17 -1,-3 -3,-9 -5,-12 -1,-1 -1,-2 0,-4z"/>
 </g>
</svg>
