<svg id="bold" enable-background="new 0 0 24 24" height="512" viewBox="0 0 24 24" width="512" xmlns="http://www.w3.org/2000/svg"><circle cx="12" cy="9" r="2"/><path d="m13.25 12h-2.5c-1.517 0-2.75 1.233-2.75 2.75v.5c0 .414.336.75.75.75h6.5c.414 0 .75-.336.75-.75v-.5c0-1.517-1.233-2.75-2.75-2.75z"/><path d="m12 22.25c-5.652 0-10.25-4.598-10.25-10.25s4.598-10.25 10.25-10.25 10.25 4.598 10.25 10.25-4.598 10.25-10.25 10.25zm0-18.5c-4.549 0-8.25 3.701-8.25 8.25s3.701 8.25 8.25 8.25 8.25-3.701 8.25-8.25-3.701-8.25-8.25-8.25z"/><path d="m12 5.5c-.552 0-1-.448-1-1v-3.5c0-.552.448-1 1-1s1 .448 1 1v3.5c0 .552-.448 1-1 1z"/><path d="m23 13h-3.5c-.552 0-1-.448-1-1s.448-1 1-1h3.5c.552 0 1 .448 1 1s-.448 1-1 1z"/><path d="m12 24c-.552 0-1-.448-1-1v-3.5c0-.552.448-1 1-1s1 .448 1 1v3.5c0 .552-.448 1-1 1z"/><path d="m4.5 13h-3.5c-.552 0-1-.448-1-1s.448-1 1-1h3.5c.552 0 1 .448 1 1s-.448 1-1 1z"/></svg>