<?xml version="1.0" encoding="UTF-8"?>
<!DOCTYPE svg PUBLIC "-//W3C//DTD SVG 1.1//EN" "http://www.w3.org/Graphics/SVG/1.1/DTD/svg11.dtd">
<!-- Creator: CorelDRAW X7 -->
<svg xmlns="http://www.w3.org/2000/svg" xml:space="preserve" width="9.2741mm" height="8.7815mm" version="1.1" style="shape-rendering:geometricPrecision; text-rendering:geometricPrecision; image-rendering:optimizeQuality; fill-rule:evenodd; clip-rule:evenodd"
viewBox="0 0 867 821"
 xmlns:xlink="http://www.w3.org/1999/xlink">
 <defs>
  <style type="text/css">
   <![CDATA[
    .fil0 {fill:#D71609}
   ]]>
  </style>
 </defs>
 <g id="Слой_x0020_1">
  <metadata id="CorelCorpID_0Corel-Layer"/>
  <g id="_1486830574912">
   <g>
    <g>
     <g>
      <path class="fil0" d="M745 329c-16,-10 -34,-17 -53,-22 5,-19 7,-38 7,-58 0,-129 -103,-235 -236,-249l0 1c94,14 163,95 163,189 0,34 -9,67 -26,96 -3,5 -6,9 -9,13 -8,13 -18,24 -29,33 -73,67 -184,67 -257,0 -11,-9 -21,-20 -29,-33 -3,-4 -6,-8 -8,-13 -17,-29 -26,-62 -26,-96 0,-94 69,-175 162,-189l0 -1c-133,14 -236,120 -236,249 0,20 2,39 7,58 -18,5 -36,12 -53,22 -114,66 -154,212 -95,335l0 0c-22,-51 -20,-109 4,-160 25,-50 70,-87 124,-101 16,-4 33,-6 49,-6 6,0 10,0 16,1 14,1 29,4 43,8 45,15 83,46 107,87 0,0 0,0 0,0 0,0 0,0 0,0l0 0c23,40 31,88 22,133 -3,15 -8,30 -15,45 -2,3 -4,7 -6,11 -30,55 -85,91 -148,98 -62,6 -123,-18 -165,-66l0 1c79,104 220,138 330,74 16,-9 32,-21 46,-35 13,14 29,26 46,35 110,64 251,30 330,-74l-1 -1c-41,48 -103,72 -165,66 -62,-7 -117,-43 -148,-98 -2,-4 -4,-8 -6,-11 -6,-15 -11,-30 -14,-45 -10,-45 -2,-93 22,-133l0 0c0,0 0,0 0,0 0,0 0,0 0,0 23,-41 61,-72 106,-87 14,-4 29,-7 44,-8 5,-1 10,-1 15,-1 65,-1 125,32 161,86 35,53 42,122 16,181l1 0c58,-123 18,-269 -96,-335z"/>
      <path class="fil0" d="M504 616c1,2 1,3 1,4 3,13 7,26 12,38 2,3 4,6 5,9 1,2 2,3 3,5 88,-37 145,-123 145,-218 0,-9 -1,-18 -2,-27 -1,0 -3,0 -4,0 -5,0 -9,0 -14,0 -12,1 -25,4 -37,8 -1,0 -2,1 -3,1 0,6 1,12 1,18 0,71 -42,134 -107,162z"/>
      <path class="fil0" d="M293 271c2,4 5,7 7,11 7,10 16,20 25,28 1,1 2,2 2,2 63,-47 150,-47 213,0 1,0 1,-1 2,-2 9,-8 18,-17 25,-28 2,-3 4,-7 6,-10 2,-2 3,-4 4,-6l0 0c-85,-64 -202,-64 -286,0 1,2 2,3 2,5z"/>
      <path class="fil0" d="M254 435c-12,-4 -24,-7 -37,-8 -4,0 -8,0 -13,0l-1 0c-1,0 -3,0 -4,0 -1,9 -2,18 -1,27 -1,95 57,181 144,218 1,-2 2,-3 3,-5 2,-2 3,-6 5,-9 6,-12 10,-25 12,-38 1,-1 1,-2 1,-4 -65,-28 -106,-91 -106,-162 0,-6 0,-12 1,-18 -2,0 -3,-1 -4,-1z"/>
     </g>
    </g>
   </g>
   <g>
   </g>
   <g>
   </g>
   <g>
   </g>
   <g>
   </g>
   <g>
   </g>
   <g>
   </g>
   <g>
   </g>
   <g>
   </g>
   <g>
   </g>
   <g>
   </g>
   <g>
   </g>
   <g>
   </g>
   <g>
   </g>
   <g>
   </g>
   <g>
   </g>
  </g>
 </g>
</svg>
