<?xml version="1.0" encoding="UTF-8"?>
<!DOCTYPE svg PUBLIC "-//W3C//DTD SVG 1.1//EN" "http://www.w3.org/Graphics/SVG/1.1/DTD/svg11.dtd">
<!-- Creator: CorelDRAW X7 -->
<svg xmlns="http://www.w3.org/2000/svg" xml:space="preserve" width="4.6772mm" height="16.9804mm" version="1.1" style="shape-rendering:geometricPrecision; text-rendering:geometricPrecision; image-rendering:optimizeQuality; fill-rule:evenodd; clip-rule:evenodd"
viewBox="0 0 106 384"
 xmlns:xlink="http://www.w3.org/1999/xlink">
 <defs>
  <style type="text/css">
   <![CDATA[
    .fil0 {fill:black}
   ]]>
  </style>
 </defs>
 <g id="Слой_x0020_1">
  <metadata id="CorelCorpID_0Corel-Layer"/>
  <path class="fil0" d="M24 89l1 18c0,1 0,2 -1,3 0,0 -1,0 -1,2 -1,5 1,10 -2,25 -1,9 -4,17 -8,24l-4 7c-2,2 -2,2 -2,5 1,64 0,129 0,194l92 0 0 -196 -5 -9c-6,-10 -8,-17 -10,-31 0,-4 0,-18 0,-19 -1,-3 -3,0 -3,-4l0 -27c0,-27 -6,-54 -21,-74 -1,-2 -5,-7 -7,-7l0 0c-3,0 -11,12 -13,16 -2,4 -3,5 -5,10 -5,12 -7,22 -9,36 -1,8 -2,18 -2,27z"/>
  <path class="fil0" d="M0 377c0,7 4,7 11,7l3 0 87 0c4,0 10,-13 -2,-14 -4,-1 -34,-1 -40,-1 -11,0 -22,1 -33,1 -5,0 -11,-1 -16,0 -2,0 -6,0 -7,1 -2,1 -3,3 -3,6z"/>
 </g>
</svg>
