<?xml version="1.0" encoding="UTF-8"?>
<!DOCTYPE svg PUBLIC "-//W3C//DTD SVG 1.1//EN" "http://www.w3.org/Graphics/SVG/1.1/DTD/svg11.dtd">
<!-- Creator: CorelDRAW X7 -->
<svg xmlns="http://www.w3.org/2000/svg" xml:space="preserve" width="15.8325mm" height="16.9438mm" version="1.1" style="shape-rendering:geometricPrecision; text-rendering:geometricPrecision; image-rendering:optimizeQuality; fill-rule:evenodd; clip-rule:evenodd"
viewBox="0 0 1108 1186"
 xmlns:xlink="http://www.w3.org/1999/xlink">
 <defs>
  <style type="text/css">
   <![CDATA[
    .fil0 {fill:black}
   ]]>
  </style>
 </defs>
 <g id="Слой_x0020_1">
  <metadata id="CorelCorpID_0Corel-Layer"/>
  <g id="_2368443473488">
   <path class="fil0" d="M74 275l3 55c0,4 0,7 -3,10 0,0 -3,0 -3,6 -3,15 3,31 -6,77 -3,28 -12,53 -25,74l-12 22c-6,6 -6,6 -6,15 3,198 0,399 0,599l284 0 0 -605 -16 -28c-18,-31 -24,-52 -31,-95 0,-13 0,-56 0,-59 -3,-9 -9,0 -9,-12l0 -84c0,-83 -18,-167 -65,-228 -3,-7 -15,-22 -21,-22l0 0c-10,0 -34,37 -40,49 -7,13 -10,16 -16,31 -15,37 -22,68 -28,111 -3,25 -6,56 -6,84l0 0z"/>
   <path class="fil0" d="M0 1164c0,22 12,22 34,22l9 0 269 0c12,0 31,-40 -6,-43 -13,-3 -105,-3 -124,-3 -34,0 -68,3 -102,3 -15,0 -34,-3 -49,0 -6,0 -19,0 -22,3 -6,3 -9,9 -9,18z"/>
  </g>
  <g id="_2368443474192">
   <path class="fil0" d="M464 275l3 55c0,4 0,7 -3,10 0,0 -3,0 -3,6 -3,15 3,31 -6,77 -3,28 -12,53 -25,74l-12 22c-6,6 -6,6 -6,15 3,198 0,399 0,599l284 0 0 -605 -15 -28c-19,-31 -25,-52 -31,-95 0,-13 0,-56 0,-59 -3,-9 -10,0 -10,-12l0 -84c0,-83 -18,-167 -64,-228 -4,-7 -16,-22 -22,-22l0 0c-9,0 -34,37 -40,49 -6,13 -10,16 -16,31 -15,37 -21,68 -27,111 -4,25 -7,56 -7,84l0 0z"/>
   <path class="fil0" d="M390 1164c0,22 13,22 34,22l9 0 269 0c12,0 31,-40 -6,-43 -12,-3 -105,-3 -124,-3 -34,0 -68,3 -101,3 -16,0 -34,-3 -50,0 -6,0 -18,0 -22,3 -6,3 -9,9 -9,18z"/>
  </g>
  <g id="_2368443476496">
   <path class="fil0" d="M855 275l3 55c0,4 0,7 -3,10 0,0 -4,0 -4,6 -3,15 4,31 -6,77 -3,28 -12,53 -24,74l-13 22c-6,6 -6,6 -6,15 3,198 0,399 0,599l284 0 0 -605 -15 -28c-19,-31 -25,-52 -31,-95 0,-13 0,-56 0,-59 -3,-9 -9,0 -9,-12l0 -84c0,-83 -19,-167 -65,-228 -3,-7 -16,-22 -22,-22l0 0c-9,0 -34,37 -40,49 -6,13 -9,16 -15,31 -16,37 -22,68 -28,111 -3,25 -6,56 -6,84l0 0z"/>
   <path class="fil0" d="M780 1164c0,22 13,22 34,22l10 0 268 0c13,0 31,-40 -6,-43 -12,-3 -105,-3 -123,-3 -34,0 -68,3 -102,3 -16,0 -34,-3 -50,0 -6,0 -18,0 -21,3 -6,3 -10,9 -10,18z"/>
  </g>
 </g>
</svg>
